<svg xmlns="http://www.w3.org/2000/svg" width="150" height="50" viewBox="0 0 150 50"><defs><clipPath id="h8xba"><path fill="#fff" d="M0 2a2 2 0 0 1 2-2h146a2 2 0 0 1 2 2v46a2 2 0 0 1-2 2H2a2 2 0 0 1-2-2z"/></clipPath></defs><g><g><g><path fill="none" stroke="#fff" stroke-miterlimit="20" stroke-width="4" d="M0 2a2 2 0 0 1 2-2h146a2 2 0 0 1 2 2v46a2 2 0 0 1-2 2H2a2 2 0 0 1-2-2z" clip-path="url(&quot;#h8xba&quot;)"/></g><g><path fill="#fff" d="M86 23.778h-9.778V14h-2.444v9.778H64v2.444h9.778V36h2.444v-9.778H86z"/></g></g></g></svg>