<svg xmlns="http://www.w3.org/2000/svg" width="282" height="50" viewBox="0 0 282 50"><defs><clipPath id="wxuva"><path fill="#fff" d="M0 2a2 2 0 0 1 2-2h278a2 2 0 0 1 2 2v46a2 2 0 0 1-2 2H2a2 2 0 0 1-2-2z"/></clipPath></defs><g><g><path fill="none" stroke="#fff" stroke-miterlimit="20" stroke-width="4" d="M0 2a2 2 0 0 1 2-2h278a2 2 0 0 1 2 2v46a2 2 0 0 1-2 2H2a2 2 0 0 1-2-2z" clip-path="url(&quot;#wxuva&quot;)"/></g><g><path fill="#fff" d="M150 24.111h-7.111V17h-1.778v7.111H134v1.778h7.111V33h1.778v-7.111H150z"/></g></g></svg>