<svg xmlns="http://www.w3.org/2000/svg" width="21" height="18" viewBox="0 0 21 18"><g><g><g><path d="M10.361 18.13L1.589 9.36A5.519 5.519 0 0 1 0 5.481C0 4.02.55 2.643 1.59 1.605c2.118-2.14 5.593-2.14 7.733.021l1.038 1.038 1.038-1.06a5.486 5.486 0 0 1 7.755 0c2.14 2.12 2.14 5.594 0 7.734zM2.564 8.365l7.797 7.796 7.797-7.818a3.97 3.97 0 0 0 1.208-2.881 4.055 4.055 0 0 0-1.208-2.881c-1.568-1.59-4.174-1.59-5.763 0l-2.034 2.034L8.327 2.6a4.062 4.062 0 0 0-2.882-1.208 4.062 4.062 0 0 0-2.881 1.208 3.97 3.97 0 0 0-1.208 2.881c0 1.08.445 2.098 1.208 2.882z"/></g></g></g></svg>